<?xml version="1.0" encoding="iso-8859-1"?>
<!-- Uploaded to: SVG Repo, www.svgrepo.com, Generator: SVG Repo Mixer Tools -->
<!DOCTYPE svg PUBLIC "-//W3C//DTD SVG 1.1//EN" "http://www.w3.org/Graphics/SVG/1.1/DTD/svg11.dtd">
<svg fill="#000000" version="1.1" id="Capa_1" xmlns="http://www.w3.org/2000/svg" xmlns:xlink="http://www.w3.org/1999/xlink" 
	 width="800px" height="800px" viewBox="0 0 31.971 31.971"
	 xml:space="preserve">
<g>
	<g>
		<path d="M15.986,0.878c-2.397,0-4.669,0.545-6.699,1.519L8.985,0.908L7.323,1.404l0.672,1.69C7.985,3.1,7.974,3.105,7.964,3.112
			L6.075,0L4.309,1.343L6.746,3.93C2.923,6.766,0.44,11.311,0.44,16.424c0,8.573,6.974,15.547,15.546,15.547
			c8.571,0,15.545-6.974,15.545-15.547C31.532,7.852,24.559,0.878,15.986,0.878z M15.986,28.184c-6.484,0-11.758-5.272-11.758-11.76
			c0-0.86,0.093-1.7,0.27-2.509h7.507l-0.029-3.165l3.235,3.165h12.262c0.177,0.809,0.271,1.649,0.271,2.509
			C27.744,22.908,22.469,28.184,15.986,28.184z"/>
		<circle cx="11.571" cy="17.667" r="1.69"/>
		<circle cx="21.077" cy="17.667" r="1.69"/>
		<path d="M16.317,24.464c2.001,0,3.67-1.364,4.197-3.18h-8.396C12.647,23.1,14.316,24.464,16.317,24.464z"/>
	</g>
</g>
</svg>